<svg id="Layer_1" xmlns="http://www.w3.org/2000/svg" viewBox="0 0 300 300"><style>.st0{fill:#303351}</style><g id="White_72_"><path class="st0" d="M151.5 161.6l-50.7-50.7 50.7-50.7 50.7 50.7-50.7 50.7zm-34.3-50.8l34.2 34.2 34.2-34.2-34.2-34.2-34.2 34.2zM113.1 226.1l-8.2-8.2 46.6-46.6 46.6 46.6-8.3 8.2-38.3-38.3z"/><path class="st0" d="M109.2 161.7h83.7v11.7h-83.7z"/><path transform="rotate(-45.009 151.074 110.828)" class="st0" d="M134.8 105h32.5v11.7h-32.5z"/><path transform="rotate(-45.001 151.086 110.831)" class="st0" d="M145.3 94.6H157v32.5h-11.7z"/><path d="M150 17.1C76.6 17.1 17.1 76.6 17.1 150S76.6 282.9 150 282.9 282.9 223.4 282.9 150 223.4 17.1 150 17.1zm0 240.8c-59.6 0-107.9-48.3-107.9-107.9C42.1 90.4 90.4 42.1 150 42.1S257.9 90.4 257.9 150c0 59.6-48.3 107.9-107.9 107.9z" fill="#a5e3e1"/><path class="st0" d="M150 264.1c-62.9 0-114.1-51.2-114.1-114.1S87.1 35.9 150 35.9 264.1 87.1 264.1 150 212.9 264.1 150 264.1zm0-215.7C94 48.4 48.4 94 48.4 150S94 251.6 150 251.6 251.6 206 251.6 150 206 48.4 150 48.4z"/><path class="st0" d="M150 289.2c-76.7 0-139.2-62.4-139.2-139.2S73.3 10.8 150 10.8 289.2 73.3 289.2 150 226.7 289.2 150 289.2zm0-265.8C80.2 23.4 23.4 80.2 23.4 150S80.2 276.6 150 276.6 276.6 219.8 276.6 150 219.8 23.4 150 23.4z"/></g></svg>