<svg xmlns="http://www.w3.org/2000/svg" viewBox="0 0 100 100"><path d="M59.8 80.3c0 8.5 6.9 15.4 15.4 15.4s15.4-6.9 15.4-15.4S83.6 65 75.1 65c-8.4 0-15.3 6.9-15.3 15.3zm7.8-2.2h15.1v4.5H67.6v-4.5zM46.7 95.6c4.8 0 9.5-.8 13.8-2.2-3.1-3.5-5.1-8.1-5.1-13.1 0-3.1.8-6 2-8.7-1 .6-2.3 1.1-3.5 1.5-2.4.8-4.9 1.3-7.4 1.3s-5-.4-7.3-1.2c-4.9-1.7-8.7-4.7-11.5-8.2-3.9 2.2-10.9 6.1-18.2 11.5 8.3 11.6 21.9 19.1 37.2 19.1z"/><path d="M22.5 45.3c.6 1.9 1.5 5.5 3.8 7.5C28 59 32.9 66.3 40.8 69.1c1.9.7 3.9 1 5.9 1s4-.4 5.8-1c7.9-2.8 12.8-10 14.5-16.3 2.3-2.1 3.2-5.7 3.8-7.5.8-3 1.7-7.3-.6-10.3-.1-.1-.2-.2-.3-.4.2-1 .3-2.1.4-3 2.6-17.7-7.2-18.8-8.3-18.8-.1 0-.1-.1-.2-.1-1.1-4.6-7.7-9.4-13.9-8.2-6.2 1.3-19-.2-19-.2-.1 2.7 2.3 4.6 2.3 4.6-10.8 6.6-8.9 20.7-7.8 25.8-.1.1-.2.2-.3.4-2.3 2.9-1.5 7.3-.6 10.2zm5.7-8.3h.3v-.1c-.3-.9-1.6-6.3 3.1-9.6 3.8.8 9.5 1 17.2-2.3C63.7 18.7 65 37 65 37h.3c1.5 0 3.1 1.2 1.4 7.1-1.3 4.6-2.5 5.9-3.5 5.9-.8 5.5-5.1 12.4-12.1 14.9-1.4.5-2.9.8-4.4.8s-3-.3-4.4-.8c-6.9-2.4-11.2-9.4-12.1-14.9-.9-.1-2.2-1.4-3.5-5.9-1.6-5.9 0-7.1 1.5-7.1z"/></svg>