<svg width="778" height="778" viewBox="0 0 778 778" fill="none" xmlns="http://www.w3.org/2000/svg">
<circle cx="385.5" cy="389.5" r="349.5" fill="#0C0D0D"/>
<path d="M389.266 418.625L261.97 291.328L389.266 164.032L516.562 291.328L389.266 418.625ZM303.146 291.077L389.015 376.946L474.884 291.077L389.015 205.209L303.146 291.077V291.077ZM292.852 580.57L272.264 559.981L389.266 442.979L506.268 559.981L485.429 580.57L389.266 484.407L292.852 580.57Z" fill="white"/>
<path d="M283.06 418.876H493.212V448.252H283.06V418.876Z" fill="white"/>
<path d="M348.96 309.7L406.651 251.991L427.426 272.76L369.735 330.469L348.96 309.7Z" fill="white"/>
<path d="M349.138 272.612L369.909 251.84L427.61 309.539L406.839 330.311L349.138 272.612Z" fill="white"/>
<path d="M385.5 55.8181C201.209 55.8181 51.8179 205.209 51.8179 389.5C51.8179 573.791 201.209 723.182 385.5 723.182C569.791 723.182 719.182 573.791 719.182 389.5C719.182 205.209 569.791 55.8181 385.5 55.8181ZM385.5 660.413C235.858 660.413 114.587 539.142 114.587 389.5C114.587 239.858 235.858 118.587 385.5 118.587C535.142 118.587 656.413 239.858 656.413 389.5C656.413 539.142 535.142 660.413 385.5 660.413V660.413Z" fill="#A5E3E1"/>
<path d="M385.5 675.98C227.572 675.98 99.0205 547.428 99.0205 389.5C99.0205 231.572 227.572 103.021 385.5 103.021C543.428 103.021 671.98 231.572 671.98 389.5C671.98 547.428 543.428 675.98 385.5 675.98ZM385.5 134.405C244.897 134.405 130.405 248.897 130.405 389.5C130.405 530.104 244.897 644.595 385.5 644.595C526.103 644.595 640.595 530.104 640.595 389.5C640.595 248.897 526.103 134.405 385.5 134.405V134.405Z" fill="#0C0D0D"/>
<path d="M385.5 739C192.923 739 36 582.328 36 389.5C36 196.672 192.923 40 385.5 40C578.076 40 735 196.923 735 389.5C735 582.076 578.076 739 385.5 739ZM385.5 71.6358C210.248 71.6358 67.6358 214.248 67.6358 389.5C67.6358 564.752 210.248 707.364 385.5 707.364C560.752 707.364 703.364 564.752 703.364 389.5C703.364 214.248 560.752 71.6358 385.5 71.6358V71.6358Z" fill="#0C0D0D"/>
</svg>
