<?xml version="1.0" encoding="utf-8"?>
<!-- Generator: Adobe Illustrator 22.1.0, SVG Export Plug-In . SVG Version: 6.00 Build 0)  -->
<svg version="1.1" id="Layer_1" xmlns="http://www.w3.org/2000/svg" xmlns:xlink="http://www.w3.org/1999/xlink" x="0px" y="0px"
	 viewBox="0 0 100 100" style="enable-background:new 0 0 100 100;" xml:space="preserve">
<g>
	<path d="M59.8,80.3c0,8.5,6.9,15.4,15.4,15.4s15.4-6.9,15.4-15.4S83.6,65,75.1,65C66.7,65,59.8,71.9,59.8,80.3z M67.6,78.1h5.5h4.1
		h5.5v4.5h-5.5h-4.1h-5.5V78.1z"/>
	<path d="M46.7,95.6c4.8,0,9.5-0.8,13.8-2.2c-3.1-3.5-5.1-8.1-5.1-13.1c0-3.1,0.8-6,2-8.7c-1,0.6-2.3,1.1-3.5,1.5
		c-2.4,0.8-4.9,1.3-7.4,1.3s-5-0.4-7.3-1.2c-4.9-1.7-8.7-4.7-11.5-8.2c-3.9,2.2-10.9,6.1-18.2,11.5C17.8,88.1,31.4,95.6,46.7,95.6z"
		/>
	<path d="M22.5,45.3c0.6,1.9,1.5,5.5,3.8,7.5C28,59,32.9,66.3,40.8,69.1c1.9,0.7,3.9,1,5.9,1s4-0.4,5.8-1c7.9-2.8,12.8-10,14.5-16.3
		c2.3-2.1,3.2-5.7,3.8-7.5c0.8-3,1.7-7.3-0.6-10.3c-0.1-0.1-0.2-0.2-0.3-0.4c0.2-1,0.3-2.1,0.4-3c2.6-17.7-7.2-18.8-8.3-18.8
		c-0.1,0-0.1-0.1-0.2-0.1c-1.1-4.6-7.7-9.4-13.9-8.2c-6.2,1.3-19-0.2-19-0.2c-0.1,2.7,2.3,4.6,2.3,4.6c-10.8,6.6-8.9,20.7-7.8,25.8
		c-0.1,0.1-0.2,0.2-0.3,0.4C20.8,38,21.6,42.4,22.5,45.3z M28.2,37c0.1,0,0.2,0,0.3,0v-0.1c-0.3-0.9-1.6-6.3,3.1-9.6
		c3.8,0.8,9.5,1,17.2-2.3C63.7,18.7,65,37,65,37l0,0c0.1,0,0.2,0,0.3,0c1.5,0,3.1,1.2,1.4,7.1c-1.3,4.6-2.5,5.9-3.5,5.9
		c-0.8,5.5-5.1,12.4-12.1,14.9c-1.4,0.5-2.9,0.8-4.4,0.8s-3-0.3-4.4-0.8c-6.9-2.4-11.2-9.4-12.1-14.9c-0.9-0.1-2.2-1.4-3.5-5.9
		C25.1,38.2,26.7,37,28.2,37z"/>
</g>
</svg>
